# xmcd CD database file
# Copyright (C) 1995-1998 Ti Kan
#
# Track frame offsets:
#	150
#	17211
#	34417
#	52054
#	70197
#	85924
#	102715
#	119643
#	137707
#	155967
#	172004
#	189729
#
# Disc length: 2763 seconds
#
# Revision: 1
# Processed by: cddbd v1.4b41PL2 Copyright (c) Steve Scherf et al.
# Submitted via: CDex 1.30Release
#
DISCID=bc0ac90c
DTITLE=颇颇具 - 2
DYEAR=2001
DGENRE=Blues
TTITLE0=飘发 1
TTITLE1=飘发 2
TTITLE2=飘发 3
TTITLE3=飘发 4
TTITLE4=飘发 5
TTITLE5=飘发 6
TTITLE6=飘发 7
TTITLE7=飘发 8
TTITLE8=飘发 9
TTITLE9=飘发 10
TTITLE10=飘发 11
TTITLE11=飘发 12
EXTD=YEAR: 2001 ID3G:   0
EXTT0=
EXTT1=
EXTT2=
EXTT3=
EXTT4=
EXTT5=
EXTT6=
EXTT7=
EXTT8=
EXTT9=
EXTT10=
EXTT11=
PLAYORDER=
